#Comment line ignore any data following # character 
#Hierarchical Translation and Rotation (.htr) file 
[Header]	
#Header keywords are followed by a single value 
FileType HTR		#Single word string
DataType HTRS		#Translation followed by rotation and scale data
FileVersion 1		#integer
NumSegments 64		#integer
NumFrames 3		#integer
DataFrameRate 30		#integer, data frame rate in this file
EulerRotationOrder ZYX
CalibrationUnits mm
RotationUnits Degrees
GlobalAxisofGravity Y
BoneLengthAxis Y
ScaleFactor 1.00
[SegmentNames&Hierarchy]
#CHILD	PARENT
Pinger_Root GLOBAL
Pelvis Pinger_Root
L_Hip Pelvis
R_Hip Pelvis
Rear_Leg01 Pelvis
Spine1 Pelvis
L_Leg01 L_Hip
L_Leg02 L_Leg01
L_Leg03 L_Leg02
L_Foot L_Leg03
L_Toe1_01 L_Foot
L_Toe2_01 L_Foot
L_Toe3_01 L_Foot
planeAlignerLeft L_Foot
L_Toe1_02 L_Toe1_01
L_Toe1_03 L_Toe1_02
L_Toe2_02 L_Toe2_01
L_Toe2_03 L_Toe2_02
L_Toe3_02 L_Toe3_01
L_Toe3_03 L_Toe3_02
planeLockWeightLeft planeAlignerLeft
R_Leg01 R_Hip
R_Leg02 R_Leg01
R_Leg03 R_Leg02
R_Foot R_Leg03
planeAlignerRight R_Foot
R_Toe1_01 R_Foot
R_Toe2_01 R_Foot
R_Toe3_01 R_Foot
planeLockWeightRight planeAlignerRight
R_Toe1_02 R_Toe1_01
R_Toe1_03 R_Toe1_02
R_Toe2_02 R_Toe2_01
R_Toe2_03 R_Toe2_02
R_Toe3_02 R_Toe3_01
R_Toe3_03 R_Toe3_02
Rear_Leg02 Rear_Leg01
Rear_Leg03 Rear_Leg02
Rear_Leg04 Rear_Leg03
Rear_Foot Rear_Leg04
planeAlignerCenter Rear_Foot
Rear_Toe1_01 Rear_Foot
Rear_Toe2_01 Rear_Foot
Rear_Toe3_01 Rear_Foot
planeLockWeightCenter planeAlignerCenter
Rear_Toe1_02 Rear_Toe1_01
Rear_Toe1_03 Rear_Toe1_02
Rear_Toe2_02 Rear_Toe2_01
Rear_Toe2_03 Rear_Toe2_02
Rear_Toe3_02 Rear_Toe3_01
Rear_Toe3_03 Rear_Toe3_02
Back_Bone Spine1
Head Spine1
Motor_Bone Back_Bone
Ping_Mechanism Back_Bone
BN_LookIK Head
bottomMouth Head
L_Mouth01 Head
L_mouthFront Head
mouthGun Head
R_Mouth01 Head
R_mouthFront Head
TopMouth Head
weapon_bone Head
[BasePosition]
#SegmentName Tx, Ty, Tz, Rx, Ry, Rz, BoneLength
Pinger_Root 0.000000 0.000000 0.000000 -90.000000 0.000000 0.000000 10.000000 
Pelvis 0.000000 0.000000 0.000000 0.000000 0.000000 0.000000 10.000000 
L_Hip 0.000000 0.000000 0.000000 0.000000 0.000000 0.000000 10.000000 
R_Hip 0.000000 0.000000 0.000000 0.000000 0.000000 0.000000 10.000000 
Rear_Leg01 0.000000 0.000000 0.000000 0.000000 0.000000 0.000000 10.000000 
Spine1 0.000000 0.000000 0.000000 0.000000 0.000000 0.000000 10.000000 
L_Leg01 0.000000 0.000000 0.000000 0.000000 0.000000 0.000000 10.000000 
L_Leg02 0.000000 0.000000 0.000000 0.000000 0.000000 0.000000 10.000000 
L_Leg03 0.000000 0.000000 0.000000 0.000000 0.000000 0.000000 10.000000 
L_Foot 0.000000 0.000000 0.000000 0.000000 0.000000 0.000000 10.000000 
L_Toe1_01 0.000000 0.000000 0.000000 0.000000 0.000000 0.000000 10.000000 
L_Toe2_01 0.000000 0.000000 0.000000 0.000000 0.000000 0.000000 10.000000 
L_Toe3_01 0.000000 0.000000 0.000000 0.000000 0.000000 0.000000 10.000000 
planeAlignerLeft 0.000000 0.000000 0.000000 0.000000 0.000000 0.000000 10.000000 
L_Toe1_02 0.000000 0.000000 0.000000 0.000000 0.000000 0.000000 10.000000 
L_Toe1_03 0.000000 0.000000 0.000000 0.000000 0.000000 0.000000 10.000000 
L_Toe2_02 0.000000 0.000000 0.000000 0.000000 0.000000 0.000000 10.000000 
L_Toe2_03 0.000000 0.000000 0.000000 0.000000 0.000000 0.000000 10.000000 
L_Toe3_02 0.000000 0.000000 0.000000 0.000000 0.000000 0.000000 10.000000 
L_Toe3_03 0.000000 0.000000 0.000000 0.000000 0.000000 0.000000 10.000000 
planeLockWeightLeft 0.000000 0.000000 0.000000 0.000000 0.000000 0.000000 10.000000 
R_Leg01 0.000000 0.000000 0.000000 0.000000 0.000000 0.000000 10.000000 
R_Leg02 0.000000 0.000000 0.000000 0.000000 0.000000 0.000000 10.000000 
R_Leg03 0.000000 0.000000 0.000000 0.000000 0.000000 0.000000 10.000000 
R_Foot 0.000000 0.000000 0.000000 0.000000 0.000000 0.000000 10.000000 
planeAlignerRight 0.000000 0.000000 0.000000 0.000000 0.000000 0.000000 10.000000 
R_Toe1_01 0.000000 0.000000 0.000000 0.000000 0.000000 0.000000 10.000000 
R_Toe2_01 0.000000 0.000000 0.000000 0.000000 0.000000 0.000000 10.000000 
R_Toe3_01 0.000000 0.000000 0.000000 0.000000 0.000000 0.000000 10.000000 
planeLockWeightRight 0.000000 0.000000 0.000000 0.000000 0.000000 0.000000 10.000000 
R_Toe1_02 0.000000 0.000000 0.000000 0.000000 0.000000 0.000000 10.000000 
R_Toe1_03 0.000000 0.000000 0.000000 0.000000 0.000000 0.000000 10.000000 
R_Toe2_02 0.000000 0.000000 0.000000 0.000000 0.000000 0.000000 10.000000 
R_Toe2_03 0.000000 0.000000 0.000000 0.000000 0.000000 0.000000 10.000000 
R_Toe3_02 0.000000 0.000000 0.000000 0.000000 0.000000 0.000000 10.000000 
R_Toe3_03 0.000000 0.000000 0.000000 0.000000 0.000000 0.000000 10.000000 
Rear_Leg02 0.000000 0.000000 0.000000 0.000000 0.000000 0.000000 10.000000 
Rear_Leg03 0.000000 0.000000 0.000000 0.000000 0.000000 0.000000 10.000000 
Rear_Leg04 0.000000 0.000000 0.000000 0.000000 0.000000 0.000000 10.000000 
Rear_Foot 0.000000 0.000000 0.000000 0.000000 0.000000 0.000000 10.000000 
planeAlignerCenter 0.000000 0.000000 0.000000 0.000000 0.000000 0.000000 10.000000 
Rear_Toe1_01 0.000000 0.000000 0.000000 0.000000 0.000000 0.000000 10.000000 
Rear_Toe2_01 0.000000 0.000000 0.000000 0.000000 0.000000 0.000000 10.000000 
Rear_Toe3_01 0.000000 0.000000 0.000000 0.000000 0.000000 0.000000 10.000000 
planeLockWeightCenter 0.000000 0.000000 0.000000 0.000000 0.000000 0.000000 10.000000 
Rear_Toe1_02 0.000000 0.000000 0.000000 0.000000 0.000000 0.000000 10.000000 
Rear_Toe1_03 0.000000 0.000000 0.000000 0.000000 0.000000 0.000000 10.000000 
Rear_Toe2_02 0.000000 0.000000 0.000000 0.000000 0.000000 0.000000 10.000000 
Rear_Toe2_03 0.000000 0.000000 0.000000 0.000000 0.000000 0.000000 10.000000 
Rear_Toe3_02 0.000000 0.000000 0.000000 0.000000 0.000000 0.000000 10.000000 
Rear_Toe3_03 0.000000 0.000000 0.000000 0.000000 0.000000 0.000000 10.000000 
Back_Bone 0.000000 0.000000 0.000000 0.000000 0.000000 0.000000 10.000000 
Head 0.000000 0.000000 0.000000 0.000000 0.000000 0.000000 10.000000 
Motor_Bone 0.000000 0.000000 0.000000 0.000000 0.000000 0.000000 10.000000 
Ping_Mechanism 0.000000 0.000000 0.000000 0.000000 0.000000 0.000000 10.000000 
BN_LookIK 0.000000 0.000000 0.000000 0.000000 0.000000 0.000000 10.000000 
bottomMouth 0.000000 0.000000 0.000000 0.000000 0.000000 0.000000 10.000000 
L_Mouth01 0.000000 0.000000 0.000000 0.000000 0.000000 0.000000 10.000000 
L_mouthFront 0.000000 0.000000 0.000000 0.000000 0.000000 0.000000 10.000000 
mouthGun 0.000000 0.000000 0.000000 0.000000 0.000000 0.000000 10.000000 
R_Mouth01 0.000000 0.000000 0.000000 0.000000 0.000000 0.000000 10.000000 
R_mouthFront 0.000000 0.000000 0.000000 0.000000 0.000000 0.000000 10.000000 
TopMouth 0.000000 0.000000 0.000000 0.000000 0.000000 0.000000 10.000000 
weapon_bone 0.000000 0.000000 0.000000 0.000000 0.000000 0.000000 10.000000 
#Beginning of Data. Separated by tabs
#Fr	Tx	Ty	Tz	Rx	Ry	Rz	SF
[Pinger_Root]
56 -0.000020 2500.000000 0.000000 -0.000075 -0.000000 -0.000020 2500.000000
57 -0.000020 2500.000000 0.000000 -0.000075 -0.000000 -0.000020 2500.000000
58 -0.000020 2500.000000 0.000000 -0.000075 -0.000000 -0.000020 2500.000000
[Pelvis]
56 246.816849 1088.485229 4053.413818 -74.461784 -74.916939 74.227806 4204.269531
57 236.986786 1038.567871 4052.426758 -72.587997 -74.544510 72.053932 4190.101563
58 225.342438 995.902161 4056.556641 -72.229530 -73.783653 71.389389 4183.091309
[L_Hip]
56 5.766392 125.831482 872.656799 162.558304 -68.693604 110.049965 881.701050
57 5.766392 125.831482 872.656799 162.013840 -67.404350 111.038612 881.701050
58 5.766392 125.831482 872.656799 161.551971 -66.111160 111.946938 881.701050
[R_Hip]
56 5.765438 125.836372 -872.654907 30.125414 71.009445 117.476456 881.699829
57 5.765438 125.836372 -872.654907 31.122026 69.853363 118.425346 881.699829
58 5.765438 125.836372 -872.654907 32.014568 68.691231 119.269928 881.699829
[Rear_Leg01]
56 -192.298416 -925.602966 -0.001907 174.505173 -2.187137 -167.422058 945.367432
57 -192.298416 -925.602966 -0.001907 176.038727 -0.225806 -168.637894 945.367432
58 -192.298416 -925.602966 -0.001907 176.912659 1.004163 -170.096161 945.367432
[Spine1]
56 290.604584 5.007505 0.000477 -2.041290 -3.248371 11.504559 290.647736
57 290.604584 5.007505 0.000477 -1.879024 -3.886191 11.139166 290.647736
58 290.604584 5.007505 0.000477 -1.603431 -4.277637 10.284081 290.647736
[L_Leg01]
56 761.932007 -0.002384 -0.069261 26.472025 -42.737682 -25.606718 761.932068
57 761.932007 -0.002384 -0.069261 25.930565 -41.541924 -25.966316 761.932068
58 761.932007 -0.002384 -0.069261 24.762642 -40.613487 -25.337412 761.932068
[L_Leg02]
56 1441.140503 -0.000954 -0.000715 2.449422 -0.116830 -123.994179 1441.140503
57 1441.140503 -0.000954 -0.000715 2.414075 -0.100999 -122.289719 1441.140503
58 1441.140503 -0.000954 -0.000715 2.420331 -0.089298 -121.284790 1441.140503
[L_Leg03]
56 1686.963989 -0.000715 -0.000954 -0.036484 0.016955 119.815224 1686.963989
57 1686.963989 -0.000715 -0.000954 -0.038109 0.017550 120.253448 1686.963989
58 1686.963989 -0.000715 -0.000954 -0.039729 0.018158 120.691673 1686.963989
[L_Foot]
56 3041.570068 -30.715107 11.297464 -4.585509 7.911697 43.694954 3041.746094
57 3041.570068 -30.715107 11.297464 -3.977078 8.190036 43.232849 3041.746094
58 3041.570068 -30.715107 11.297464 -3.370503 8.473207 42.773445 3041.746094
[L_Toe1_01]
56 -188.216690 -224.732346 -21.137953 90.875023 -4.069196 -165.773224 293.899567
57 -188.216690 -224.732346 -21.137953 91.064384 -4.342654 -166.747971 293.899567
58 -188.216690 -224.732346 -21.137953 91.258415 -4.612795 -167.723724 293.899567
[L_Toe2_01]
56 200.746536 -219.926590 148.838394 -83.990143 -18.601807 -41.769505 332.896027
57 200.746536 -219.926590 148.838394 -84.377670 -19.093740 -42.238392 332.896027
58 200.746536 -219.926590 148.838394 -84.762115 -19.588678 -42.705189 332.896027
[L_Toe3_01]
56 188.832520 -219.859131 -191.078659 -104.605949 25.139837 -50.122345 347.140900
57 188.832520 -219.859131 -191.078659 -104.254791 24.254538 -50.694019 347.140900
58 188.832520 -219.859131 -191.078659 -103.896553 23.372852 -51.267471 347.140900
[planeAlignerLeft]
56 46.587982 -526.906128 13.357117 169.683029 -84.920250 96.272827 529.130371
57 52.364651 -527.379822 20.785744 169.508560 -84.470642 96.090019 530.380554
58 58.141300 -527.853516 28.214340 169.333466 -84.021088 95.907692 531.794861
[L_Toe1_02]
56 413.761139 0.000477 0.000000 0.001385 -25.803165 0.001385 413.761139
57 413.761139 0.000477 0.000000 0.001385 -25.816704 0.001385 413.761139
58 413.761139 0.000477 0.000000 0.001385 -25.830240 0.001385 413.761139
[L_Toe1_03]
56 464.317322 0.000358 -0.000089 0.003414 49.788666 0.003414 464.317322
57 464.317322 0.000358 -0.000089 0.003586 51.781624 0.003586 464.317322
58 464.317322 0.000358 -0.000089 0.003775 53.774544 0.003775 464.317322
[L_Toe2_02]
56 342.235809 -0.000477 0.000238 0.001182 -76.644394 0.001182 342.235809
57 342.235809 -0.000477 0.000238 0.001182 -76.293594 0.001182 342.235809
58 342.235809 -0.000477 0.000238 0.001183 -75.942833 0.001183 342.235809
[L_Toe2_03]
56 420.210846 -0.000715 0.000000 -179.993744 81.770348 -179.990234 420.210846
57 420.210846 -0.000715 0.000000 -179.992004 83.237579 -179.988510 420.210846
58 420.210846 -0.000715 0.000000 -179.989304 84.704468 -179.985809 420.210846
[L_Toe3_02]
56 329.270111 0.000954 0.000000 0.003573 -83.102516 0.003573 329.270111
57 329.270111 0.000954 0.000000 0.003388 -83.004028 0.003388 329.270111
58 329.270111 0.000954 0.000000 0.003204 -82.905441 0.003204 329.270111
[L_Toe3_03]
56 439.137451 -0.001907 0.000954 179.991013 64.906273 179.998184 439.137451
57 439.137451 -0.001907 0.000954 179.990875 65.599731 179.998032 439.137451
58 439.137451 -0.001907 0.000954 179.990738 66.206917 179.997879 439.137451
[planeLockWeightLeft]
56 1000.000122 0.000107 -0.000102 -0.011826 -0.004376 0.005620 1000.000122
57 1000.000122 0.000091 -0.000102 -0.011826 -0.004376 0.005620 1000.000122
58 1000.000244 0.000074 -0.000101 -0.011826 -0.004376 0.005620 1000.000244
[R_Leg01]
56 761.455627 -0.001907 -0.000358 135.682236 -24.522699 37.620274 761.455688
57 761.455627 -0.001907 -0.000358 136.587189 -24.585123 35.008156 761.455688
58 761.455627 -0.001907 -0.000358 137.494614 -24.609968 32.394344 761.455688
[R_Leg02]
56 1441.140625 0.000000 -0.000238 -2.753899 -1.563731 -150.183670 1441.140625
57 1441.140625 0.000000 -0.000238 -2.819627 -1.664315 -150.280212 1441.140625
58 1441.140625 0.000000 -0.000238 -2.811499 -1.636579 -149.825409 1441.140625
[R_Leg03]
56 1686.963989 0.000954 0.001431 0.135989 -0.091331 147.975052 1686.963989
57 1686.963989 0.000954 0.001431 0.136088 -0.091185 147.851547 1686.963989
58 1686.963989 0.000954 0.001431 0.136186 -0.091038 147.728012 1686.963989
[R_Foot]
56 3041.560059 -30.531288 -11.204481 1.842944 -9.000331 63.652916 3041.734131
57 3041.560059 -30.531288 -11.204481 0.635514 -9.422405 63.355080 3041.734131
58 3041.560059 -30.531288 -11.204481 -0.570853 -9.850457 63.066040 3041.734131
[planeAlignerRight]
56 -81.647537 -677.844849 -202.878128 -36.777313 -78.340645 -60.350937 712.249573
57 -91.323601 -659.890137 -225.429153 -36.787937 -76.969307 -61.117073 703.287476
58 -99.469505 -641.815247 -245.040161 -36.871212 -75.598625 -61.812393 694.165466
[R_Toe1_01]
56 -188.383347 -224.864899 21.052242 81.044182 -1.554784 -163.595703 294.101532
57 -188.383347 -224.864899 21.052242 79.842598 -1.365256 -165.412186 294.101532
58 -188.383347 -224.864899 21.052242 78.636116 -1.213983 -167.231430 294.101532
[R_Toe2_01]
56 200.637817 -220.002121 -148.787384 -97.796532 18.699379 -57.850391 332.857574
57 200.637817 -220.002121 -148.787384 -97.464813 21.038376 -58.113777 332.857574
58 200.637817 -220.002121 -148.787384 -97.139053 23.379751 -58.366917 332.857574
[R_Toe3_01]
56 188.606735 -220.092957 191.126343 -66.336273 -16.926079 -72.775810 347.192566
57 188.606735 -220.092957 191.126343 -67.164177 -15.135040 -72.960205 347.192566
58 188.606735 -220.092957 191.126343 -67.990952 -13.347849 -73.169586 347.192566
[planeLockWeightRight]
56 1000.000000 0.000305 -0.000434 -0.011823 -0.004379 -0.000027 1000.000000
57 1000.000000 0.000305 -0.000435 -0.011823 -0.004379 -0.000027 1000.000000
58 1000.000000 0.000305 -0.000435 -0.011823 -0.004379 -0.000027 1000.000000
[R_Toe1_02]
56 413.762085 0.000477 -0.000119 0.001389 -25.289391 0.001389 413.762085
57 413.762085 0.000477 -0.000119 0.001390 -25.200848 0.001390 413.762085
58 413.762085 0.000477 -0.000119 0.001391 -25.112307 0.001391 413.762085
[R_Toe1_03]
56 464.317810 0.000000 0.001088 0.005506 65.383804 0.005506 464.317810
57 464.317810 0.000000 0.001088 0.005774 66.543617 0.005774 464.317810
58 464.317810 0.000000 0.001088 0.005951 67.249916 0.005951 464.317810
[R_Toe2_02]
56 342.234741 -0.000954 0.000238 0.001201 -65.533920 0.001201 342.234741
57 342.234741 -0.000954 0.000238 0.001200 -65.942207 0.001200 342.234741
58 342.234741 -0.000954 0.000238 0.001199 -66.350441 0.001199 342.234741
[R_Toe2_03]
56 420.210846 0.000715 -0.000268 -0.005152 70.407150 -0.001604 420.210846
57 420.210846 0.000715 -0.000268 -0.005307 71.287216 -0.001763 420.210846
58 420.210846 0.000715 -0.000268 -0.005478 72.167236 -0.001938 420.210846
[R_Toe3_02]
56 329.270355 -0.000477 -0.000954 0.000600 -69.723640 0.000600 329.270355
57 329.270355 -0.000477 -0.000954 0.001190 -70.895332 0.001190 329.270355
58 329.270355 -0.000477 -0.000954 0.001189 -71.688484 0.001189 329.270355
[R_Toe3_03]
56 439.137939 0.000238 0.001431 0.008002 73.120148 0.008002 439.137939
57 439.137939 0.000238 0.001431 0.009163 75.282799 0.009163 439.137939
58 439.137939 0.000238 0.001431 0.010452 77.104248 0.010452 439.137939
[Rear_Leg02]
56 1162.777710 -0.029802 0.005960 -16.766676 23.087376 -151.668976 1162.777710
57 1162.777710 -0.029802 0.005960 -8.407968 22.960638 -135.543594 1162.777710
58 1162.777710 -0.029802 0.005960 -3.900991 20.023390 -126.103615 1162.777710
[Rear_Leg03]
56 607.192505 -0.013351 -0.073195 0.010298 -0.005486 72.442955 607.192505
57 607.192505 -0.013351 -0.073195 0.010519 -0.005051 67.653488 607.192505
58 607.192505 -0.013351 -0.073195 0.006470 -0.002125 64.573112 607.192505
[Rear_Leg04]
56 995.874512 -0.020504 -0.011921 -0.041563 -0.015542 76.354904 995.874573
57 995.874512 -0.020504 -0.011921 -0.039840 -0.019539 65.112381 995.874573
58 995.874512 -0.020504 -0.011921 -0.040588 -0.014971 58.778027 995.874573
[Rear_Foot]
56 3096.176270 -0.067472 -0.041425 69.646080 65.917061 -97.283699 3096.176270
57 3096.176270 -0.067472 -0.041425 57.420589 69.760941 -100.292610 3096.176270
58 3096.176270 -0.067472 -0.041425 58.598721 72.940071 -99.541321 3096.176270
[planeAlignerCenter]
56 7.118739 176.284958 -1022.431946 5.119322 -0.001585 179.998276 1037.542358
57 6.242795 152.232391 -854.203613 5.504368 -0.001579 179.998260 867.685181
58 2.433483 85.229401 -705.891479 5.889431 -0.001573 179.998260 711.022339
[Rear_Toe1_01]
56 0.653352 83.966492 -371.173737 0.054943 45.141914 89.989388 380.553192
57 0.653352 83.966492 -371.173737 0.092082 37.076786 90.069199 380.553192
58 0.653352 83.966492 -371.173737 0.166234 31.727486 90.282135 380.553192
[Rear_Toe2_01]
56 178.200760 -294.826019 -362.060547 22.340261 67.141869 -41.585213 499.765686
57 178.200760 -294.826019 -362.060547 7.453424 50.135529 -53.303223 499.765686
58 178.200760 -294.826019 -362.060547 -0.569982 38.713123 -61.351254 499.765686
[Rear_Toe3_01]
56 -153.359680 -308.780914 -362.060852 -13.401914 67.217606 -127.735451 499.952881
57 -153.359680 -308.780914 -362.060852 -4.442057 49.791214 -120.624855 499.952881
58 -153.359680 -308.780914 -362.060852 0.184851 38.273613 -115.670624 499.952881
[planeLockWeightCenter]
56 740.728271 0.000916 0.000000 -0.011814 -0.004373 -0.000015 740.728210
57 999.993103 0.000305 -0.000219 -0.011814 -0.004373 -0.000015 999.993103
58 1000.000000 0.000305 -0.000213 -0.011814 -0.004373 -0.000015 1000.000000
[Rear_Toe1_02]
56 379.707825 0.194073 0.000477 0.001332 -33.593773 0.001332 379.707855
57 379.707825 0.194073 0.000477 -0.000338 -32.984684 0.006988 379.707855
58 379.707825 0.194073 0.000477 -0.000189 -30.942327 0.006905 379.707855
[Rear_Toe1_03]
56 500.129700 0.165701 0.000119 0.007408 71.770050 0.007408 500.129761
57 500.129700 0.165701 0.000119 -0.004086 60.791859 -0.000473 500.129761
58 500.129700 0.165701 0.000119 -0.000436 48.397228 0.007045 500.129761
[Rear_Toe2_02]
56 340.494507 0.000238 -0.000954 0.000000 -89.489861 0.002347 340.494507
57 340.494507 0.000238 -0.000954 0.001174 -88.333405 0.001174 340.494507
58 340.494507 0.000238 -0.000954 0.001181 -76.823509 0.001181 340.494507
[Rear_Toe2_03]
56 433.103577 0.000000 0.000238 -179.995178 68.195930 -179.998749 433.103546
57 433.103577 0.000000 0.000238 -179.994568 71.910362 -179.998123 433.103546
58 433.103577 0.000000 0.000238 0.015763 81.460976 0.015763 433.103546
[Rear_Toe3_02]
56 340.494141 -0.000358 -0.000477 0.000000 -89.608833 0.005856 340.494171
57 340.494141 -0.000358 -0.000477 0.001171 -88.057808 0.001177 340.494171
58 340.494141 -0.000358 -0.000477 0.001184 -75.016991 0.001184 340.494171
[Rear_Toe3_03]
56 433.103577 0.001431 -0.000238 -179.998810 67.802216 -179.995239 433.103546
57 433.103577 0.001431 -0.000238 -179.997925 72.774170 -179.994400 433.103546
58 433.103577 0.001431 -0.000238 0.011471 78.255524 0.011471 433.103546
[Back_Bone]
56 1312.175781 -701.934692 0.000954 2.098315 -3.274566 -89.476624 1488.125488
57 1312.175781 -701.934692 0.000954 1.811105 -3.400257 -89.405083 1488.125488
58 1312.175781 -701.934692 0.000954 1.523696 -3.525579 -89.332901 1488.125488
[Head]
56 1406.159424 809.709290 0.001431 1.117105 0.176782 6.614599 1622.625488
57 1406.159424 809.709290 0.001431 1.060763 0.093409 6.673808 1622.625488
58 1406.159424 809.709290 0.001431 1.004333 0.010094 6.733100 1622.625488
[Motor_Bone]
56 1158.364380 -417.834747 0.000477 2.270533 -1.149501 -107.133369 1231.419434
57 1158.364380 -417.834747 0.000477 1.114836 -1.132542 -107.122055 1231.419434
58 1158.364380 -417.834747 0.000477 -1.034432 -1.094877 -107.077393 1231.419434
[Ping_Mechanism]
56 1288.027466 -455.724792 15.180986 0.000103 -0.000053 82.120995 1366.356567
57 1287.915039 -455.110504 18.808916 0.000103 -0.000053 82.120995 1366.090942
58 1291.995361 -455.723999 19.889339 0.000103 -0.000053 82.120995 1370.157715
[BN_LookIK]
56 193.241119 1380.371704 -0.002861 0.000000 89.965736 -31.038179 1393.832153
57 193.241119 1380.371704 -0.002861 0.000000 89.965736 -31.038179 1393.832153
58 193.241119 1380.371704 -0.002861 0.000000 89.965736 -31.038179 1393.832153
[bottomMouth]
56 -435.092926 615.759399 -0.000954 -0.000022 0.000016 73.527184 753.966492
57 -435.092926 615.759399 -0.000954 -0.000022 0.000016 73.527184 753.966492
58 -435.092926 615.759399 -0.000954 -0.000022 0.000016 73.527184 753.966492
[L_Mouth01]
56 554.440979 7.658243 838.222046 150.204178 23.759130 109.605339 1005.027161
57 554.440979 7.658243 838.222046 150.204178 23.759130 109.605339 1005.027161
58 554.440979 7.658243 838.222046 150.204178 23.759130 109.605339 1005.027161
[L_mouthFront]
56 551.629089 934.514771 339.150421 0.000081 2.804060 79.119301 1136.941284
57 551.629089 934.514771 339.150421 0.000081 2.804060 79.119301 1136.941284
58 551.629089 934.514771 339.150421 0.000081 2.804060 79.119301 1136.941284
[mouthGun]
56 55.332661 1627.420898 0.000000 0.000023 0.000009 -11.038128 1628.361328
57 55.332661 1627.420898 0.000000 0.000023 0.000009 -11.038128 1628.361328
58 55.332661 1627.420898 0.000000 0.000023 0.000009 -11.038128 1628.361328
[R_Mouth01]
56 554.442383 7.659197 -838.223938 29.795891 -23.759109 109.605331 1005.029541
57 554.442383 7.659197 -838.223938 29.795891 -23.759109 109.605331 1005.029541
58 554.442383 7.659197 -838.223938 29.795891 -23.759109 109.605331 1005.029541
[R_mouthFront]
56 551.629089 934.514282 -339.151367 0.000029 -2.803930 79.119133 1136.941162
57 551.629089 934.514282 -339.151367 0.000029 -2.803930 79.119133 1136.941162
58 551.629089 934.514282 -339.151367 0.000029 -2.803930 79.119133 1136.941162
[TopMouth]
56 461.269867 -56.106091 -0.008583 -0.000059 -0.000268 92.025169 464.669525
57 461.269867 -56.106091 -0.008583 -0.000059 -0.000268 92.025169 464.669525
58 461.269867 -56.106091 -0.008583 -0.000059 -0.000268 92.025169 464.669525
[weapon_bone]
56 -987.239868 1448.372803 0.001431 0.000000 89.965736 -31.038221 1752.833740
57 -987.239868 1448.372803 0.001431 0.000000 89.965736 -31.038221 1752.833740
58 -987.239868 1448.372803 0.001431 0.000000 89.965736 -31.038221 1752.833740
